<?xml version="1.0" encoding="UTF-8" standalone="no"?>
<svg
   xmlns:dc="http://purl.org/dc/elements/1.1/"
   xmlns:cc="http://creativecommons.org/ns#"
   xmlns:rdf="http://www.w3.org/1999/02/22-rdf-syntax-ns#"
   xmlns:svg="http://www.w3.org/2000/svg"
   xmlns="http://www.w3.org/2000/svg"
   xmlns:sodipodi="http://sodipodi.sourceforge.net/DTD/sodipodi-0.dtd"
   xmlns:inkscape="http://www.inkscape.org/namespaces/inkscape"
   inkscape:export-ydpi="300"
   inkscape:export-xdpi="300"
   inkscape:export-filename="/Users/rad/bitmap.png"
   inkscape:version="1.0 (4035a4f, 2020-05-01)"
   sodipodi:docname="cyano_example.svg"
   id="svg2772"
   version="1.1"
   viewBox="0 0 720.00 599.73">
  <metadata
     id="metadata2776">
    <rdf:RDF>
      <cc:Work
         rdf:about="">
        <dc:format>image/svg+xml</dc:format>
        <dc:type
           rdf:resource="http://purl.org/dc/dcmitype/StillImage" />
      </cc:Work>
    </rdf:RDF>
  </metadata>
  <sodipodi:namedview
     inkscape:current-layer="svg2772"
     inkscape:window-maximized="1"
     inkscape:window-y="23"
     inkscape:window-x="0"
     inkscape:cy="305.36809"
     inkscape:cx="371.98751"
     inkscape:zoom="1.0788188"
     showgrid="false"
     id="namedview2774"
     inkscape:window-height="855"
     inkscape:window-width="1440"
     inkscape:pageshadow="2"
     inkscape:pageopacity="0"
     guidetolerance="10"
     gridtolerance="10"
     objecttolerance="10"
     borderopacity="1"
     bordercolor="#666666"
     pagecolor="#ffffff" />
  <defs
     id="defs2137">
    <inkscape:path-effect
       only_selected="false"
       apply_with_weight="true"
       apply_no_weight="true"
       helper_size="0"
       steps="2"
       weight="33.333333"
       lpeversion="1"
       is_visible="true"
       id="path-effect3162"
       effect="bspline" />
    <inkscape:path-effect
       only_selected="false"
       apply_with_weight="true"
       apply_no_weight="true"
       helper_size="0"
       steps="2"
       weight="33.333333"
       lpeversion="1"
       is_visible="true"
       id="path-effect3158"
       effect="bspline" />
    <inkscape:path-effect
       only_selected="false"
       apply_with_weight="true"
       apply_no_weight="true"
       helper_size="0"
       steps="2"
       weight="33.333333"
       lpeversion="1"
       is_visible="true"
       id="path-effect3126"
       effect="bspline" />
    <inkscape:path-effect
       only_selected="false"
       apply_with_weight="true"
       apply_no_weight="true"
       helper_size="0"
       steps="2"
       weight="33.333333"
       lpeversion="1"
       is_visible="true"
       id="path-effect3122"
       effect="bspline" />
    <inkscape:path-effect
       only_selected="false"
       apply_with_weight="true"
       apply_no_weight="true"
       helper_size="0"
       steps="2"
       weight="33.333333"
       lpeversion="1"
       is_visible="true"
       id="path-effect3091"
       effect="bspline" />
    <inkscape:path-effect
       only_selected="false"
       apply_with_weight="true"
       apply_no_weight="true"
       helper_size="0"
       steps="2"
       weight="33.333333"
       lpeversion="1"
       is_visible="true"
       id="path-effect3087"
       effect="bspline" />
    <inkscape:path-effect
       only_selected="false"
       apply_with_weight="true"
       apply_no_weight="true"
       helper_size="0"
       steps="2"
       weight="33.333333"
       lpeversion="1"
       is_visible="true"
       id="path-effect3061"
       effect="bspline" />
    <inkscape:path-effect
       only_selected="false"
       apply_with_weight="true"
       apply_no_weight="true"
       helper_size="0"
       steps="2"
       weight="33.333333"
       lpeversion="1"
       is_visible="true"
       id="path-effect3057"
       effect="bspline" />
    <inkscape:path-effect
       only_selected="false"
       apply_with_weight="true"
       apply_no_weight="true"
       helper_size="0"
       steps="2"
       weight="33.333333"
       lpeversion="1"
       is_visible="true"
       id="path-effect3053"
       effect="bspline" />
    <style
       id="style2135"
       type="text/css"><![CDATA[
    line, polyline, polygon, path, rect, circle {
      fill: none;
      stroke: #000000;
      stroke-linecap: round;
      stroke-linejoin: round;
      stroke-miterlimit: 10.00;
    }
  ]]></style>
  </defs>
  <rect
     id="rect2139"
     style="stroke: none; fill: none;"
     height="100%"
     width="100%" />
  <defs
     id="defs2144">
    <clipPath
       id="cpMC4yN3w3MTkuNzN8NTk5LjczfDAuMDA=">
      <rect
         id="rect2141"
         height="599.73"
         width="719.45"
         y="0.00"
         x="0.27" />
    </clipPath>
  </defs>
  <rect
     id="rect2146"
     clip-path="url(#cpMC4yN3w3MTkuNzN8NTk5LjczfDAuMDA=)"
     style="stroke-width: 1.07; stroke: none;"
     height="599.73"
     width="719.45"
     y="0.00"
     x="0.27" />
  <defs
     id="defs2151">
    <clipPath
       id="cpMC4wMHw3MjAuMDB8NTk5LjczfDAuMDA=">
      <rect
         id="rect2148"
         height="599.73"
         width="720.00"
         y="0.00"
         x="0.00" />
    </clipPath>
  </defs>
  <defs
     id="defs2156">
    <clipPath
       id="cpMy4wMXw3MTkuNzN8NTk2Ljk5fDAuMDA=">
      <rect
         id="rect2153"
         height="596.99"
         width="716.71"
         y="0.00"
         x="3.01" />
    </clipPath>
  </defs>
  <rect
     id="rect2158"
     clip-path="url(#cpMy4wMXw3MTkuNzN8NTk2Ljk5fDAuMDA=)"
     style="stroke-width: 1.07; stroke: none;"
     height="596.99"
     width="716.71"
     y="0.00"
     x="3.01" />
  <polygon
     id="polygon2160"
     clip-path="url(#cpMy4wMXw3MTkuNzN8NTk2Ljk5fDAuMDA=)"
     style="stroke-width: 1.07; stroke: none; fill: #3286B5;"
     points="294.76,462.71 289.05,454.42 234.76,491.81 240.47,500.10 " />
  <polygon
     id="polygon2162"
     clip-path="url(#cpMy4wMXw3MTkuNzN8NTk2Ljk5fDAuMDA=)"
     style="stroke-width: 1.07; stroke: none; fill: #3286B5;"
     points="301.97,458.57 301.81,456.77 301.33,455.03 300.55,453.41 299.49,451.95 298.18,450.70 296.68,449.71 295.02,449.00 293.26,448.59 291.46,448.51 289.67,448.76 287.95,449.31 286.36,450.17 284.95,451.29 283.77,452.65 282.84,454.20 282.21,455.89 281.89,457.66 281.89,459.47 282.21,461.24 282.84,462.93 283.77,464.48 284.95,465.84 286.36,466.96 287.95,467.82 289.67,468.38 291.46,468.62 293.26,468.54 295.02,468.14 296.68,467.43 298.18,466.43 299.49,465.19 300.55,463.73 301.33,462.10 301.81,460.36 301.97,458.57 " />
  <polygon
     id="polygon2164"
     clip-path="url(#cpMy4wMXw3MTkuNzN8NTk2Ljk5fDAuMDA=)"
     style="stroke-width: 1.07; stroke: none; fill: #D55E00;"
     points="275.52,91.75 266.31,95.82 285.00,138.15 294.21,134.09 " />
  <polygon
     id="polygon2166"
     clip-path="url(#cpMy4wMXw3MTkuNzN8NTk2Ljk5fDAuMDA=)"
     style="stroke-width: 1.07; stroke: none; fill: #D55E00;"
     points="280.98,93.78 280.82,91.99 280.34,90.25 279.55,88.62 278.49,87.16 277.19,85.92 275.68,84.92 274.03,84.21 272.27,83.81 270.46,83.73 268.68,83.97 266.96,84.53 265.37,85.39 263.96,86.51 262.78,87.87 261.85,89.42 261.22,91.11 260.89,92.88 260.89,94.69 261.22,96.46 261.85,98.15 262.78,99.70 263.96,101.06 265.37,102.18 266.96,103.04 268.68,103.59 270.46,103.84 272.27,103.76 274.03,103.35 275.68,102.64 277.19,101.65 278.49,100.40 279.55,98.94 280.34,97.32 280.82,95.58 280.98,93.78 " />
  <polygon
     id="polygon2168"
     clip-path="url(#cpMy4wMXw3MTkuNzN8NTk2Ljk5fDAuMDA=)"
     style="stroke-width: 1.07; stroke: none; fill: #0072B2;"
     points="281.16,577.23 272.04,581.49 233.06,498.09 242.18,493.83 " />
  <polygon
     id="polygon2170"
     clip-path="url(#cpMy4wMXw3MTkuNzN8NTk2Ljk5fDAuMDA=)"
     style="stroke-width: 1.07; stroke: none; fill: #0072B2;"
     points="286.66,579.36 286.50,577.56 286.02,575.83 285.24,574.20 284.18,572.74 282.88,571.49 281.37,570.50 279.71,569.79 277.95,569.39 276.15,569.31 274.36,569.55 272.65,570.11 271.06,570.96 269.65,572.09 268.46,573.45 267.54,575.00 266.90,576.68 266.58,578.46 266.58,580.26 266.90,582.04 267.54,583.73 268.46,585.28 269.65,586.63 271.06,587.76 272.65,588.61 274.36,589.17 276.15,589.41 277.95,589.33 279.71,588.93 281.37,588.22 282.88,587.23 284.18,585.98 285.24,584.52 286.02,582.90 286.50,581.16 286.66,579.36 " />
  <polygon
     id="polygon2172"
     clip-path="url(#cpMy4wMXw3MTkuNzN8NTk2Ljk5fDAuMDA=)"
     style="stroke-width: 1.07; stroke: none; fill: #BEBDBD;"
     points="254.48,440.88 244.64,438.78 232.70,494.91 242.54,497.00 " />
  <polygon
     id="polygon2174"
     clip-path="url(#cpMy4wMXw3MTkuNzN8NTk2Ljk5fDAuMDA=)"
     style="stroke-width: 1.07; stroke: none; fill: #BEBDBD;"
     points="259.62,439.83 259.46,438.03 258.98,436.29 258.20,434.67 257.14,433.21 255.83,431.96 254.33,430.97 252.67,430.26 250.91,429.86 249.11,429.78 247.32,430.02 245.60,430.58 244.01,431.43 242.60,432.56 241.42,433.92 240.49,435.46 239.86,437.15 239.54,438.93 239.54,440.73 239.86,442.51 240.49,444.20 241.42,445.74 242.60,447.10 244.01,448.23 245.60,449.08 247.32,449.64 249.11,449.88 250.91,449.80 252.67,449.40 254.33,448.69 255.83,447.70 257.14,446.45 258.20,444.99 258.98,443.37 259.46,441.63 259.62,439.83 " />
  <polygon
     id="polygon2176"
     clip-path="url(#cpMy4wMXw3MTkuNzN8NTk2Ljk5fDAuMDA=)"
     style="stroke-width: 1.07; stroke: none; fill: #80A5BA;"
     points="46.69,401.98 40.37,394.15 88.22,355.52 94.54,363.35 " />
  <polygon
     id="polygon2178"
     clip-path="url(#cpMy4wMXw3MTkuNzN8NTk2Ljk5fDAuMDA=)"
     style="stroke-width: 1.07; stroke: none; fill: #80A5BA;"
     points="53.60,398.07 53.43,396.27 52.95,394.53 52.17,392.91 51.11,391.45 49.81,390.20 48.30,389.21 46.64,388.50 44.88,388.10 43.08,388.01 41.29,388.26 39.58,388.81 37.99,389.67 36.58,390.79 35.39,392.15 34.47,393.70 33.83,395.39 33.51,397.16 33.51,398.97 33.83,400.74 34.47,402.43 35.39,403.98 36.58,405.34 37.99,406.46 39.58,407.32 41.29,407.88 43.08,408.12 44.88,408.04 46.64,407.64 48.30,406.93 49.81,405.93 51.11,404.69 52.17,403.23 52.95,401.60 53.43,399.86 53.60,398.07 " />
  <polygon
     id="polygon2180"
     clip-path="url(#cpMy4wMXw3MTkuNzN8NTk2Ljk5fDAuMDA=)"
     style="stroke-width: 1.07; stroke: none; fill: #92ACBB;"
     points="111.68,408.32 102.06,411.28 86.58,360.92 96.19,357.96 " />
  <polygon
     id="polygon2182"
     clip-path="url(#cpMy4wMXw3MTkuNzN8NTk2Ljk5fDAuMDA=)"
     style="stroke-width: 1.07; stroke: none; fill: #92ACBB;"
     points="116.93,409.80 116.77,408.01 116.29,406.27 115.51,404.64 114.45,403.18 113.14,401.94 111.64,400.94 109.98,400.23 108.22,399.83 106.42,399.75 104.63,399.99 102.92,400.55 101.33,401.40 99.92,402.53 98.73,403.89 97.80,405.44 97.17,407.13 96.85,408.90 96.85,410.70 97.17,412.48 97.80,414.17 98.73,415.72 99.92,417.08 101.33,418.20 102.92,419.06 104.63,419.61 106.42,419.85 108.22,419.77 109.98,419.37 111.64,418.66 113.14,417.67 114.45,416.42 115.51,414.96 116.29,413.34 116.77,411.60 116.93,409.80 " />
  <polygon
     id="polygon2184"
     clip-path="url(#cpMy4wMXw3MTkuNzN8NTk2Ljk5fDAuMDA=)"
     style="stroke-width: 1.07; stroke: none; fill: #2E84B4;"
     points="198.33,574.36 189.60,569.34 233.26,493.45 241.98,498.47 " />
  <polygon
     id="polygon2186"
     clip-path="url(#cpMy4wMXw3MTkuNzN8NTk2Ljk5fDAuMDA=)"
     style="stroke-width: 1.07; stroke: none; fill: #2E84B4;"
     points="204.03,571.85 203.87,570.05 203.39,568.31 202.60,566.69 201.54,565.23 200.24,563.98 198.73,562.99 197.07,562.28 195.32,561.88 193.51,561.80 191.73,562.04 190.01,562.60 188.42,563.45 187.01,564.58 185.82,565.93 184.90,567.48 184.26,569.17 183.94,570.95 183.94,572.75 184.26,574.53 184.90,576.21 185.82,577.76 187.01,579.12 188.42,580.25 190.01,581.10 191.73,581.66 193.51,581.90 195.32,581.82 197.07,581.42 198.73,580.71 200.24,579.72 201.54,578.47 202.60,577.01 203.39,575.38 203.87,573.65 204.03,571.85 " />
  <polygon
     id="polygon2188"
     clip-path="url(#cpMy4wMXw3MTkuNzN8NTk2Ljk5fDAuMDA=)"
     style="stroke-width: 1.07; stroke: none; fill: #BEBDBD;"
     points="69.34,217.16 59.86,220.53 78.82,273.82 88.30,270.45 " />
  <polygon
     id="polygon2190"
     clip-path="url(#cpMy4wMXw3MTkuNzN8NTk2Ljk5fDAuMDA=)"
     style="stroke-width: 1.07; stroke: none; fill: #BEBDBD;"
     points="74.66,218.85 74.50,217.05 74.02,215.31 73.24,213.68 72.18,212.23 70.87,210.98 69.37,209.98 67.71,209.28 65.95,208.87 64.15,208.79 62.36,209.04 60.64,209.59 59.06,210.45 57.65,211.57 56.46,212.93 55.53,214.48 54.90,216.17 54.58,217.94 54.58,219.75 54.90,221.52 55.53,223.21 56.46,224.76 57.65,226.12 59.06,227.24 60.64,228.10 62.36,228.66 64.15,228.90 65.95,228.82 67.71,228.42 69.37,227.71 70.87,226.71 72.18,225.47 73.24,224.01 74.02,222.38 74.50,220.64 74.66,218.85 " />
  <polygon
     id="polygon2192"
     clip-path="url(#cpMy4wMXw3MTkuNzN8NTk2Ljk5fDAuMDA=)"
     style="stroke-width: 1.07; stroke: none; fill: #BEBDBD;"
     points="43.05,336.03 39.54,345.46 89.63,364.15 93.14,354.72 " />
  <polygon
     id="polygon2194"
     clip-path="url(#cpMy4wMXw3MTkuNzN8NTk2Ljk5fDAuMDA=)"
     style="stroke-width: 1.07; stroke: none; fill: #BEBDBD;"
     points="51.36,340.74 51.20,338.95 50.72,337.21 49.93,335.58 48.87,334.12 47.57,332.88 46.06,331.88 44.40,331.17 42.65,330.77 40.84,330.69 39.06,330.93 37.34,331.49 35.75,332.35 34.34,333.47 33.15,334.83 32.23,336.38 31.60,338.07 31.27,339.84 31.27,341.64 31.60,343.42 32.23,345.11 33.15,346.66 34.34,348.02 35.75,349.14 37.34,350.00 39.06,350.55 40.84,350.80 42.65,350.71 44.40,350.31 46.06,349.60 47.57,348.61 48.87,347.36 49.93,345.90 50.72,344.28 51.20,342.54 51.36,340.74 " />
  <polygon
     id="polygon2196"
     clip-path="url(#cpMy4wMXw3MTkuNzN8NTk2Ljk5fDAuMDA=)"
     style="stroke-width: 1.07; stroke: none; fill: #BEBDBD;"
     points="291.42,497.53 290.19,507.51 237.00,500.95 238.23,490.96 " />
  <polygon
     id="polygon2198"
     clip-path="url(#cpMy4wMXw3MTkuNzN8NTk2Ljk5fDAuMDA=)"
     style="stroke-width: 1.07; stroke: none; fill: #BEBDBD;"
     points="300.86,502.52 300.70,500.72 300.22,498.99 299.44,497.36 298.38,495.90 297.08,494.65 295.57,493.66 293.91,492.95 292.15,492.55 290.35,492.47 288.56,492.71 286.85,493.27 285.26,494.12 283.85,495.25 282.66,496.61 281.74,498.16 281.10,499.84 280.78,501.62 280.78,503.42 281.10,505.20 281.74,506.89 282.66,508.44 283.85,509.79 285.26,510.92 286.85,511.77 288.56,512.33 290.35,512.57 292.15,512.49 293.91,512.09 295.57,511.38 297.08,510.39 298.38,509.14 299.44,507.68 300.22,506.06 300.70,504.32 300.86,502.52 " />
  <polygon
     id="polygon2200"
     clip-path="url(#cpMy4wMXw3MTkuNzN8NTk2Ljk5fDAuMDA=)"
     style="stroke-width: 1.07; stroke: none; fill: #0072B2;"
     points="448.81,125.16 441.96,117.79 407.38,149.93 414.23,157.30 " />
  <polygon
     id="polygon2202"
     clip-path="url(#cpMy4wMXw3MTkuNzN8NTk2Ljk5fDAuMDA=)"
     style="stroke-width: 1.07; stroke: none; fill: #0072B2;"
     points="455.45,121.47 455.29,119.67 454.81,117.94 454.03,116.31 452.97,114.85 451.66,113.60 450.16,112.61 448.50,111.90 446.74,111.50 444.94,111.42 443.15,111.66 441.43,112.22 439.84,113.07 438.43,114.20 437.25,115.56 436.32,117.10 435.69,118.79 435.37,120.57 435.37,122.37 435.69,124.15 436.32,125.84 437.25,127.39 438.43,128.74 439.84,129.87 441.43,130.72 443.15,131.28 444.94,131.52 446.74,131.44 448.50,131.04 450.16,130.33 451.66,129.34 452.97,128.09 454.03,126.63 454.81,125.01 455.29,123.27 455.45,121.47 " />
  <polygon
     id="polygon2204"
     clip-path="url(#cpMy4wMXw3MTkuNzN8NTk2Ljk5fDAuMDA=)"
     style="stroke-width: 1.07; stroke: none; fill: #0072B2;"
     points="186.99,530.00 182.09,521.21 235.16,491.57 240.07,500.35 " />
  <polygon
     id="polygon2206"
     clip-path="url(#cpMy4wMXw3MTkuNzN8NTk2Ljk5fDAuMDA=)"
     style="stroke-width: 1.07; stroke: none; fill: #0072B2;"
     points="194.60,525.60 194.44,523.81 193.96,522.07 193.18,520.44 192.12,518.98 190.81,517.74 189.31,516.74 187.65,516.03 185.89,515.63 184.09,515.55 182.30,515.79 180.59,516.35 179.00,517.21 177.59,518.33 176.40,519.69 175.47,521.24 174.84,522.93 174.52,524.70 174.52,526.51 174.84,528.28 175.47,529.97 176.40,531.52 177.59,532.88 179.00,534.00 180.59,534.86 182.30,535.41 184.09,535.66 185.89,535.58 187.65,535.17 189.31,534.46 190.81,533.47 192.12,532.22 193.18,530.76 193.96,529.14 194.44,527.40 194.60,525.60 " />
  <polygon
     id="polygon2208"
     clip-path="url(#cpMy4wMXw3MTkuNzN8NTk2Ljk5fDAuMDA=)"
     style="stroke-width: 1.07; stroke: none; fill: #BEBDBD;"
     points="512.84,447.70 510.33,457.45 464.47,445.63 466.98,435.89 " />
  <polygon
     id="polygon2210"
     clip-path="url(#cpMy4wMXw3MTkuNzN8NTk2Ljk5fDAuMDA=)"
     style="stroke-width: 1.07; stroke: none; fill: #BEBDBD;"
     points="521.64,452.58 521.48,450.78 521.00,449.04 520.22,447.41 519.16,445.95 517.86,444.71 516.35,443.71 514.69,443.01 512.93,442.60 511.13,442.52 509.34,442.77 507.63,443.32 506.04,444.18 504.63,445.30 503.44,446.66 502.52,448.21 501.88,449.90 501.56,451.67 501.56,453.48 501.88,455.25 502.52,456.94 503.44,458.49 504.63,459.85 506.04,460.97 507.63,461.83 509.34,462.39 511.13,462.63 512.93,462.55 514.69,462.15 516.35,461.44 517.86,460.44 519.16,459.20 520.22,457.74 521.00,456.11 521.48,454.37 521.64,452.58 " />
  <polygon
     id="polygon2212"
     clip-path="url(#cpMy4wMXw3MTkuNzN8NTk2Ljk5fDAuMDA=)"
     style="stroke-width: 1.07; stroke: none; fill: #BEBDBD;"
     points="162.64,482.63 161.54,492.63 237.07,500.96 238.17,490.96 " />
  <polygon
     id="polygon2214"
     clip-path="url(#cpMy4wMXw3MTkuNzN8NTk2Ljk5fDAuMDA=)"
     style="stroke-width: 1.07; stroke: none; fill: #BEBDBD;"
     points="172.16,487.63 171.99,485.83 171.51,484.09 170.73,482.47 169.67,481.01 168.37,479.76 166.86,478.77 165.20,478.06 163.44,477.65 161.64,477.57 159.85,477.82 158.14,478.37 156.55,479.23 155.14,480.35 153.95,481.71 153.03,483.26 152.39,484.95 152.07,486.72 152.07,488.53 152.39,490.30 153.03,491.99 153.95,493.54 155.14,494.90 156.55,496.02 158.14,496.88 159.85,497.44 161.64,497.68 163.44,497.60 165.20,497.20 166.86,496.49 168.37,495.49 169.67,494.25 170.73,492.79 171.51,491.16 171.99,489.42 172.16,487.63 " />
  <polygon
     id="polygon2216"
     clip-path="url(#cpMy4wMXw3MTkuNzN8NTk2Ljk5fDAuMDA=)"
     style="stroke-width: 1.07; stroke: none; fill: #0072B2;"
     points="240.15,552.81 230.10,552.37 232.59,495.74 242.64,496.18 " />
  <polygon
     id="polygon2218"
     clip-path="url(#cpMy4wMXw3MTkuNzN8NTk2Ljk5fDAuMDA=)"
     style="stroke-width: 1.07; stroke: none; fill: #0072B2;"
     points="245.19,552.59 245.03,550.79 244.55,549.05 243.76,547.43 242.70,545.97 241.40,544.72 239.89,543.73 238.24,543.02 236.48,542.62 234.67,542.54 232.89,542.78 231.17,543.33 229.58,544.19 228.17,545.31 226.99,546.67 226.06,548.22 225.43,549.91 225.10,551.69 225.10,553.49 225.43,555.26 226.06,556.95 226.99,558.50 228.17,559.86 229.58,560.99 231.17,561.84 232.89,562.40 234.67,562.64 236.48,562.56 238.24,562.16 239.89,561.45 241.40,560.45 242.70,559.21 243.76,557.75 244.55,556.12 245.03,554.38 245.19,552.59 " />
  <polygon
     id="polygon2220"
     clip-path="url(#cpMy4wMXw3MTkuNzN8NTk2Ljk5fDAuMDA=)"
     style="stroke-width: 1.07; stroke: none; fill: #BEBDBD;"
     points="148.66,219.43 138.62,220.08 141.99,272.32 152.03,271.67 " />
  <polygon
     id="polygon2222"
     clip-path="url(#cpMy4wMXw3MTkuNzN8NTk2Ljk5fDAuMDA=)"
     style="stroke-width: 1.07; stroke: none; fill: #BEBDBD;"
     points="153.70,219.75 153.54,217.96 153.06,216.22 152.28,214.59 151.22,213.13 149.92,211.89 148.41,210.89 146.75,210.18 144.99,209.78 143.19,209.70 141.40,209.94 139.69,210.50 138.10,211.36 136.69,212.48 135.50,213.84 134.58,215.39 133.94,217.08 133.62,218.85 133.62,220.66 133.94,222.43 134.58,224.12 135.50,225.67 136.69,227.03 138.10,228.15 139.69,229.01 141.40,229.56 143.19,229.81 144.99,229.72 146.75,229.32 148.41,228.61 149.92,227.62 151.22,226.37 152.28,224.91 153.06,223.29 153.54,221.55 153.70,219.75 " />
  <polygon
     id="polygon2224"
     clip-path="url(#cpMy4wMXw3MTkuNzN8NTk2Ljk5fDAuMDA=)"
     style="stroke-width: 1.07; stroke: none; fill: #BEBDBD;"
     points="30.78,263.62 30.12,273.66 83.23,277.16 83.90,267.12 " />
  <polygon
     id="polygon2226"
     clip-path="url(#cpMy4wMXw3MTkuNzN8NTk2Ljk5fDAuMDA=)"
     style="stroke-width: 1.07; stroke: none; fill: #BEBDBD;"
     points="40.51,268.64 40.35,266.84 39.87,265.10 39.09,263.48 38.03,262.02 36.72,260.77 35.22,259.78 33.56,259.07 31.80,258.67 30.00,258.59 28.21,258.83 26.50,259.39 24.91,260.24 23.50,261.37 22.31,262.72 21.39,264.27 20.75,265.96 20.43,267.74 20.43,269.54 20.75,271.32 21.39,273.00 22.31,274.55 23.50,275.91 24.91,277.04 26.50,277.89 28.21,278.45 30.00,278.69 31.80,278.61 33.56,278.21 35.22,277.50 36.72,276.51 38.03,275.26 39.09,273.80 39.87,272.17 40.35,270.44 40.51,268.64 " />
  <polygon
     id="polygon2228"
     clip-path="url(#cpMy4wMXw3MTkuNzN8NTk2Ljk5fDAuMDA=)"
     style="stroke-width: 1.07; stroke: none; fill: #D55E00;"
     points="552.22,276.85 551.28,266.83 503.00,271.32 503.93,281.34 " />
  <polygon
     id="polygon2230"
     clip-path="url(#cpMy4wMXw3MTkuNzN8NTk2Ljk5fDAuMDA=)"
     style="stroke-width: 1.07; stroke: none; fill: #D55E00;"
     points="561.81,271.84 561.65,270.04 561.17,268.30 560.39,266.68 559.33,265.22 558.02,263.97 556.52,262.98 554.86,262.27 553.10,261.87 551.30,261.79 549.51,262.03 547.80,262.59 546.21,263.44 544.80,264.56 543.61,265.92 542.68,267.47 542.05,269.16 541.73,270.94 541.73,272.74 542.05,274.52 542.68,276.20 543.61,277.75 544.80,279.11 546.21,280.24 547.80,281.09 549.51,281.65 551.30,281.89 553.10,281.81 554.86,281.41 556.52,280.70 558.02,279.71 559.33,278.46 560.39,277.00 561.17,275.37 561.65,273.63 561.81,271.84 " />
  <polygon
     id="polygon2232"
     clip-path="url(#cpMy4wMXw3MTkuNzN8NTk2Ljk5fDAuMDA=)"
     style="stroke-width: 1.07; stroke: none; fill: #0072B2;"
     points="198.73,447.65 191.43,454.57 233.97,499.42 241.27,492.50 " />
  <polygon
     id="polygon2234"
     clip-path="url(#cpMy4wMXw3MTkuNzN8NTk2Ljk5fDAuMDA=)"
     style="stroke-width: 1.07; stroke: none; fill: #0072B2;"
     points="205.14,451.11 204.98,449.31 204.50,447.57 203.72,445.95 202.66,444.49 201.35,443.24 199.85,442.25 198.19,441.54 196.43,441.14 194.63,441.06 192.84,441.30 191.13,441.86 189.54,442.71 188.13,443.84 186.94,445.19 186.01,446.74 185.38,448.43 185.06,450.21 185.06,452.01 185.38,453.79 186.01,455.47 186.94,457.02 188.13,458.38 189.54,459.51 191.13,460.36 192.84,460.92 194.63,461.16 196.43,461.08 198.19,460.68 199.85,459.97 201.35,458.98 202.66,457.73 203.72,456.27 204.50,454.64 204.98,452.91 205.14,451.11 " />
  <polygon
     id="polygon2236"
     clip-path="url(#cpMy4wMXw3MTkuNzN8NTk2Ljk5fDAuMDA=)"
     style="stroke-width: 1.07; stroke: none; fill: #0072B2;"
     points="223.50,235.09 213.97,231.86 196.78,282.47 206.30,285.71 " />
  <polygon
     id="polygon2238"
     clip-path="url(#cpMy4wMXw3MTkuNzN8NTk2Ljk5fDAuMDA=)"
     style="stroke-width: 1.07; stroke: none; fill: #0072B2;"
     points="228.79,233.48 228.63,231.68 228.15,229.94 227.37,228.32 226.31,226.86 225.01,225.61 223.50,224.62 221.84,223.91 220.08,223.51 218.28,223.42 216.49,223.67 214.78,224.22 213.19,225.08 211.78,226.20 210.59,227.56 209.67,229.11 209.03,230.80 208.71,232.57 208.71,234.38 209.03,236.15 209.67,237.84 210.59,239.39 211.78,240.75 213.19,241.87 214.78,242.73 216.49,243.29 218.28,243.53 220.08,243.45 221.84,243.05 223.50,242.34 225.01,241.34 226.31,240.10 227.37,238.64 228.15,237.01 228.63,235.27 228.79,233.48 " />
  <polygon
     id="polygon2240"
     clip-path="url(#cpMy4wMXw3MTkuNzN8NTk2Ljk5fDAuMDA=)"
     style="stroke-width: 1.07; stroke: none; fill: #6299B8;"
     points="309.38,539.32 303.67,547.61 234.76,500.10 240.47,491.82 " />
  <polygon
     id="polygon2242"
     clip-path="url(#cpMy4wMXw3MTkuNzN8NTk2Ljk5fDAuMDA=)"
     style="stroke-width: 1.07; stroke: none; fill: #6299B8;"
     points="316.58,543.46 316.42,541.67 315.94,539.93 315.16,538.30 314.10,536.84 312.80,535.60 311.29,534.60 309.63,533.89 307.87,533.49 306.07,533.41 304.28,533.65 302.57,534.21 300.98,535.07 299.57,536.19 298.38,537.55 297.46,539.10 296.82,540.79 296.50,542.56 296.50,544.37 296.82,546.14 297.46,547.83 298.38,549.38 299.57,550.74 300.98,551.86 302.57,552.72 304.28,553.27 306.07,553.52 307.87,553.44 309.63,553.03 311.29,552.32 312.80,551.33 314.10,550.08 315.16,548.62 315.94,547.00 316.42,545.26 316.58,543.46 " />
  <polygon
     id="polygon2244"
     clip-path="url(#cpMy4wMXw3MTkuNzN8NTk2Ljk5fDAuMDA=)"
     style="stroke-width: 1.07; stroke: none; fill: #D55E00;"
     points="294.42,134.66 284.79,137.58 299.15,184.80 308.78,181.88 " />
  <polygon
     id="polygon2246"
     clip-path="url(#cpMy4wMXw3MTkuNzN8NTk2Ljk5fDAuMDA=)"
     style="stroke-width: 1.07; stroke: none; fill: #D55E00;"
     points="299.67,136.12 299.50,134.32 299.02,132.58 298.24,130.96 297.18,129.50 295.88,128.25 294.37,127.26 292.71,126.55 290.95,126.15 289.15,126.07 287.37,126.31 285.65,126.87 284.06,127.72 282.65,128.85 281.46,130.20 280.54,131.75 279.90,133.44 279.58,135.22 279.58,137.02 279.90,138.80 280.54,140.49 281.46,142.03 282.65,143.39 284.06,144.52 285.65,145.37 287.37,145.93 289.15,146.17 290.95,146.09 292.71,145.69 294.37,144.98 295.88,143.99 297.18,142.74 298.24,141.28 299.02,139.65 299.50,137.92 299.67,136.12 " />
  <polygon
     id="polygon2248"
     clip-path="url(#cpMy4wMXw3MTkuNzN8NTk2Ljk5fDAuMDA=)"
     style="stroke-width: 1.07; stroke: none; fill: #0072B2;"
     points="414.74,156.75 406.87,150.48 373.73,192.12 381.60,198.39 " />
  <polygon
     id="polygon2250"
     clip-path="url(#cpMy4wMXw3MTkuNzN8NTk2Ljk5fDAuMDA=)"
     style="stroke-width: 1.07; stroke: none; fill: #0072B2;"
     points="420.87,153.61 420.71,151.82 420.23,150.08 419.45,148.45 418.39,146.99 417.08,145.75 415.58,144.75 413.92,144.04 412.16,143.64 410.36,143.56 408.57,143.80 406.85,144.36 405.26,145.22 403.85,146.34 402.67,147.70 401.74,149.25 401.11,150.94 400.79,152.71 400.79,154.51 401.11,156.29 401.74,157.98 402.67,159.53 403.85,160.89 405.26,162.01 406.85,162.87 408.57,163.42 410.36,163.67 412.16,163.58 413.92,163.18 415.58,162.47 417.08,161.48 418.39,160.23 419.45,158.77 420.23,157.15 420.71,155.41 420.87,153.61 " />
  <polygon
     id="polygon2252"
     clip-path="url(#cpMy4wMXw3MTkuNzN8NTk2Ljk5fDAuMDA=)"
     style="stroke-width: 1.07; stroke: none; fill: #BEBDBD;"
     points="466.15,435.75 465.31,445.78 417.86,441.79 418.71,431.76 " />
  <polygon
     id="polygon2254"
     clip-path="url(#cpMy4wMXw3MTkuNzN8NTk2Ljk5fDAuMDA=)"
     style="stroke-width: 1.07; stroke: none; fill: #BEBDBD;"
     points="475.79,440.76 475.63,438.97 475.15,437.23 474.36,435.60 473.30,434.14 472.00,432.90 470.50,431.90 468.84,431.19 467.08,430.79 465.28,430.71 463.49,430.95 461.77,431.51 460.18,432.36 458.77,433.49 457.59,434.85 456.66,436.40 456.03,438.09 455.70,439.86 455.70,441.66 456.03,443.44 456.66,445.13 457.59,446.68 458.77,448.04 460.18,449.16 461.77,450.02 463.49,450.57 465.28,450.81 467.08,450.73 468.84,450.33 470.50,449.62 472.00,448.63 473.30,447.38 474.36,445.92 475.15,444.30 475.63,442.56 475.79,440.76 " />
  <polygon
     id="polygon2256"
     clip-path="url(#cpMy4wMXw3MTkuNzN8NTk2Ljk5fDAuMDA=)"
     style="stroke-width: 1.07; stroke: none; fill: #BEBDBD;"
     points="151.78,270.41 142.24,273.59 163.65,337.78 173.19,334.59 " />
  <polygon
     id="polygon2258"
     clip-path="url(#cpMy4wMXw3MTkuNzN8NTk2Ljk5fDAuMDA=)"
     style="stroke-width: 1.07; stroke: none; fill: #BEBDBD;"
     points="157.07,272.00 156.91,270.20 156.43,268.46 155.65,266.84 154.59,265.38 153.28,264.13 151.78,263.14 150.12,262.43 148.36,262.03 146.56,261.94 144.77,262.19 143.06,262.74 141.47,263.60 140.06,264.72 138.87,266.08 137.95,267.63 137.31,269.32 136.99,271.10 136.99,272.90 137.31,274.67 137.95,276.36 138.87,277.91 140.06,279.27 141.47,280.39 143.06,281.25 144.77,281.81 146.56,282.05 148.36,281.97 150.12,281.57 151.78,280.86 153.28,279.86 154.59,278.62 155.65,277.16 156.43,275.53 156.91,273.79 157.07,272.00 " />
  <polygon
     id="polygon2260"
     clip-path="url(#cpMy4wMXw3MTkuNzN8NTk2Ljk5fDAuMDA=)"
     style="stroke-width: 1.07; stroke: none; fill: #D55E00;"
     points="504.47,281.26 502.45,271.40 448.98,282.37 451.00,292.22 " />
  <polygon
     id="polygon2262"
     clip-path="url(#cpMy4wMXw3MTkuNzN8NTk2Ljk5fDAuMDA=)"
     style="stroke-width: 1.07; stroke: none; fill: #D55E00;"
     points="513.52,276.33 513.36,274.53 512.88,272.79 512.10,271.17 511.04,269.71 509.74,268.46 508.23,267.47 506.57,266.76 504.81,266.36 503.01,266.27 501.22,266.52 499.51,267.07 497.92,267.93 496.51,269.05 495.32,270.41 494.40,271.96 493.76,273.65 493.44,275.42 493.44,277.23 493.76,279.00 494.40,280.69 495.32,282.24 496.51,283.60 497.92,284.72 499.51,285.58 501.22,286.14 503.01,286.38 504.81,286.30 506.57,285.90 508.23,285.19 509.74,284.19 511.04,282.95 512.10,281.49 512.88,279.86 513.36,278.12 513.52,276.33 " />
  <polygon
     id="polygon2264"
     clip-path="url(#cpMy4wMXw3MTkuNzN8NTk2Ljk5fDAuMDA=)"
     style="stroke-width: 1.07; stroke: none; fill: #0072B2;"
     points="205.79,286.79 197.29,281.39 164.17,333.49 172.67,338.89 " />
  <polygon
     id="polygon2266"
     clip-path="url(#cpMy4wMXw3MTkuNzN8NTk2Ljk5fDAuMDA=)"
     style="stroke-width: 1.07; stroke: none; fill: #0072B2;"
     points="211.60,284.09 211.44,282.29 210.96,280.55 210.18,278.93 209.12,277.47 207.81,276.22 206.31,275.23 204.65,274.52 202.89,274.12 201.09,274.04 199.30,274.28 197.59,274.84 196.00,275.69 194.59,276.82 193.40,278.18 192.47,279.72 191.84,281.41 191.52,283.19 191.52,284.99 191.84,286.77 192.47,288.46 193.40,290.01 194.59,291.36 196.00,292.49 197.59,293.34 199.30,293.90 201.09,294.14 202.89,294.06 204.65,293.66 206.31,292.95 207.81,291.96 209.12,290.71 210.18,289.25 210.96,287.63 211.44,285.89 211.60,284.09 " />
  <polygon
     id="polygon2268"
     clip-path="url(#cpMy4wMXw3MTkuNzN8NTk2Ljk5fDAuMDA=)"
     style="stroke-width: 1.07; stroke: none; fill: #BEBDBD;"
     points="86.77,267.89 80.36,276.38 165.21,340.43 171.63,331.94 " />
  <polygon
     id="polygon2270"
     clip-path="url(#cpMy4wMXw3MTkuNzN8NTk2Ljk5fDAuMDA=)"
     style="stroke-width: 1.07; stroke: none; fill: #BEBDBD;"
     points="94.21,272.14 94.04,270.23 93.53,268.40 92.70,266.68 91.58,265.13 90.20,263.81 88.61,262.76 86.85,262.01 84.99,261.59 83.09,261.50 81.20,261.76 79.38,262.35 77.70,263.25 76.21,264.44 74.95,265.88 73.97,267.52 73.30,269.30 72.96,271.18 72.96,273.09 73.30,274.97 73.97,276.75 74.95,278.39 76.21,279.83 77.70,281.02 79.38,281.92 81.20,282.51 83.09,282.77 84.99,282.68 86.85,282.26 88.61,281.51 90.20,280.46 91.58,279.14 92.70,277.59 93.53,275.88 94.04,274.04 94.21,272.14 " />
  <polygon
     id="polygon2272"
     clip-path="url(#cpMy4wMXw3MTkuNzN8NTk2Ljk5fDAuMDA=)"
     style="stroke-width: 1.07; stroke: none; fill: #80A5BA;"
     points="92.99,364.75 89.78,354.13 166.82,330.88 170.02,341.49 " />
  <polygon
     id="polygon2274"
     clip-path="url(#cpMy4wMXw3MTkuNzN8NTk2Ljk5fDAuMDA=)"
     style="stroke-width: 1.07; stroke: none; fill: #80A5BA;"
     points="102.47,359.44 102.30,357.46 101.77,355.54 100.91,353.75 99.74,352.14 98.30,350.77 96.64,349.67 94.81,348.89 92.87,348.45 90.89,348.36 88.92,348.63 87.03,349.24 85.27,350.18 83.72,351.42 82.41,352.92 81.39,354.63 80.69,356.49 80.34,358.44 80.34,360.43 80.69,362.39 81.39,364.25 82.41,365.96 83.72,367.45 85.27,368.69 87.03,369.64 88.92,370.25 90.89,370.52 92.87,370.43 94.81,369.99 96.64,369.20 98.30,368.11 99.74,366.73 100.91,365.13 101.77,363.33 102.30,361.42 102.47,359.44 " />
  <polygon
     id="polygon2276"
     clip-path="url(#cpMy4wMXw3MTkuNzN8NTk2Ljk5fDAuMDA=)"
     style="stroke-width: 1.07; stroke: none; fill: #3487B5;"
     points="243.63,493.35 231.61,498.56 162.41,338.79 174.43,333.58 " />
  <polygon
     id="polygon2278"
     clip-path="url(#cpMy4wMXw3MTkuNzN8NTk2Ljk5fDAuMDA=)"
     style="stroke-width: 1.07; stroke: none; fill: #3487B5;"
     points="250.72,495.96 250.51,493.62 249.88,491.35 248.86,489.24 247.48,487.34 245.79,485.72 243.83,484.42 241.67,483.50 239.38,482.98 237.03,482.87 234.70,483.19 232.47,483.91 230.40,485.03 228.57,486.49 227.02,488.26 225.82,490.27 224.99,492.47 224.57,494.78 224.57,497.13 224.99,499.44 225.82,501.64 227.02,503.66 228.57,505.43 230.40,506.89 232.47,508.00 234.70,508.73 237.03,509.04 239.38,508.94 241.67,508.42 243.83,507.49 245.79,506.20 247.48,504.58 248.86,502.68 249.88,500.56 250.51,498.30 250.72,495.96 " />
  <polygon
     id="polygon2280"
     clip-path="url(#cpMy4wMXw3MTkuNzN8NTk2Ljk5fDAuMDA=)"
     style="stroke-width: 1.07; stroke: none; fill: #D55E00;"
     points="308.33,180.83 299.60,185.85 325.62,231.09 334.34,226.07 " />
  <polygon
     id="polygon2282"
     clip-path="url(#cpMy4wMXw3MTkuNzN8NTk2Ljk5fDAuMDA=)"
     style="stroke-width: 1.07; stroke: none; fill: #D55E00;"
     points="314.03,183.34 313.87,181.54 313.39,179.80 312.60,178.18 311.54,176.72 310.24,175.47 308.73,174.48 307.07,173.77 305.32,173.37 303.51,173.29 301.73,173.53 300.01,174.09 298.42,174.94 297.01,176.07 295.82,177.42 294.90,178.97 294.27,180.66 293.94,182.44 293.94,184.24 294.27,186.02 294.90,187.71 295.82,189.25 297.01,190.61 298.42,191.74 300.01,192.59 301.73,193.15 303.51,193.39 305.32,193.31 307.07,192.91 308.73,192.20 310.24,191.21 311.54,189.96 312.60,188.50 313.39,186.88 313.87,185.14 314.03,183.34 " />
  <polygon
     id="polygon2284"
     clip-path="url(#cpMy4wMXw3MTkuNzN8NTk2Ljk5fDAuMDA=)"
     style="stroke-width: 1.07; stroke: none; fill: #0072B2;"
     points="380.55,199.38 374.79,191.13 327.10,224.46 332.86,232.71 " />
  <polygon
     id="polygon2286"
     clip-path="url(#cpMy4wMXw3MTkuNzN8NTk2Ljk5fDAuMDA=)"
     style="stroke-width: 1.07; stroke: none; fill: #0072B2;"
     points="387.73,195.26 387.57,193.46 387.09,191.72 386.31,190.09 385.25,188.64 383.94,187.39 382.44,186.39 380.78,185.69 379.02,185.28 377.22,185.20 375.43,185.45 373.71,186.00 372.12,186.86 370.71,187.98 369.53,189.34 368.60,190.89 367.97,192.58 367.65,194.35 367.65,196.16 367.97,197.93 368.60,199.62 369.53,201.17 370.71,202.53 372.12,203.65 373.71,204.51 375.43,205.07 377.22,205.31 379.02,205.23 380.78,204.83 382.44,204.12 383.94,203.12 385.25,201.88 386.31,200.42 387.09,198.79 387.57,197.05 387.73,195.26 " />
  <polygon
     id="polygon2288"
     clip-path="url(#cpMy4wMXw3MTkuNzN8NTk2Ljk5fDAuMDA=)"
     style="stroke-width: 1.07; stroke: none; fill: #BEBDBD;"
     points="420.94,432.50 415.63,441.05 372.88,414.52 378.18,405.97 " />
  <polygon
     id="polygon2290"
     clip-path="url(#cpMy4wMXw3MTkuNzN8NTk2Ljk5fDAuMDA=)"
     style="stroke-width: 1.07; stroke: none; fill: #BEBDBD;"
     points="428.35,436.77 428.19,434.98 427.71,433.24 426.92,431.61 425.86,430.15 424.56,428.91 423.05,427.91 421.40,427.20 419.64,426.80 417.83,426.72 416.05,426.96 414.33,427.52 412.74,428.38 411.33,429.50 410.15,430.86 409.22,432.41 408.59,434.10 408.26,435.87 408.26,437.67 408.59,439.45 409.22,441.14 410.15,442.69 411.33,444.05 412.74,445.17 414.33,446.03 416.05,446.58 417.83,446.83 419.64,446.74 421.40,446.34 423.05,445.63 424.56,444.64 425.86,443.39 426.92,441.93 427.71,440.31 428.19,438.57 428.35,436.77 " />
  <polygon
     id="polygon2292"
     clip-path="url(#cpMy4wMXw3MTkuNzN8NTk2Ljk5fDAuMDA=)"
     style="stroke-width: 1.07; stroke: none; fill: #D55E00;"
     points="450.35,282.28 449.63,292.31 388.71,287.92 389.44,277.88 " />
  <polygon
     id="polygon2294"
     clip-path="url(#cpMy4wMXw3MTkuNzN8NTk2Ljk5fDAuMDA=)"
     style="stroke-width: 1.07; stroke: none; fill: #D55E00;"
     points="460.05,287.30 459.89,285.50 459.41,283.76 458.63,282.13 457.57,280.68 456.27,279.43 454.76,278.43 453.10,277.73 451.34,277.32 449.54,277.24 447.75,277.49 446.04,278.04 444.45,278.90 443.04,280.02 441.85,281.38 440.93,282.93 440.29,284.62 439.97,286.39 439.97,288.20 440.29,289.97 440.93,291.66 441.85,293.21 443.04,294.57 444.45,295.69 446.04,296.55 447.75,297.11 449.54,297.35 451.34,297.27 453.10,296.87 454.76,296.16 456.27,295.16 457.57,293.92 458.63,292.46 459.41,290.83 459.89,289.09 460.05,287.30 " />
  <polygon
     id="polygon2296"
     clip-path="url(#cpMy4wMXw3MTkuNzN8NTk2Ljk5fDAuMDA=)"
     style="stroke-width: 1.07; stroke: none; fill: #3D8AB5;"
     points="169.78,343.28 167.06,329.09 245.36,314.13 248.07,328.32 " />
  <polygon
     id="polygon2298"
     clip-path="url(#cpMy4wMXw3MTkuNzN8NTk2Ljk5fDAuMDA=)"
     style="stroke-width: 1.07; stroke: none; fill: #3D8AB5;"
     points="182.87,336.19 182.64,333.61 181.95,331.11 180.82,328.78 179.30,326.68 177.43,324.89 175.27,323.46 172.88,322.44 170.36,321.87 167.77,321.75 165.20,322.10 162.74,322.90 160.46,324.13 158.44,325.74 156.73,327.69 155.40,329.92 154.49,332.34 154.03,334.89 154.03,337.48 154.49,340.03 155.40,342.45 156.73,344.68 158.44,346.63 160.46,348.24 162.74,349.47 165.20,350.27 167.77,350.62 170.36,350.50 172.88,349.93 175.27,348.91 177.43,347.48 179.30,345.69 180.82,343.60 181.95,341.26 182.64,338.77 182.87,336.19 " />
  <polygon
     id="polygon2300"
     clip-path="url(#cpMy4wMXw3MTkuNzN8NTk2Ljk5fDAuMDA=)"
     style="stroke-width: 1.07; stroke: none; fill: #BEBDBD;"
     points="379.40,407.03 371.66,413.46 343.85,379.98 351.60,373.55 " />
  <polygon
     id="polygon2302"
     clip-path="url(#cpMy4wMXw3MTkuNzN8NTk2Ljk5fDAuMDA=)"
     style="stroke-width: 1.07; stroke: none; fill: #BEBDBD;"
     points="385.59,410.24 385.43,408.44 384.95,406.71 384.17,405.08 383.11,403.62 381.80,402.37 380.30,401.38 378.64,400.67 376.88,400.27 375.08,400.19 373.29,400.43 371.58,400.99 369.99,401.84 368.58,402.97 367.39,404.33 366.46,405.88 365.83,407.56 365.51,409.34 365.51,411.14 365.83,412.92 366.46,414.61 367.39,416.16 368.58,417.51 369.99,418.64 371.58,419.49 373.29,420.05 375.08,420.29 376.88,420.21 378.64,419.81 380.30,419.10 381.80,418.11 383.11,416.86 384.17,415.40 384.95,413.78 385.43,412.04 385.59,410.24 " />
  <polygon
     id="polygon2304"
     clip-path="url(#cpMy4wMXw3MTkuNzN8NTk2Ljk5fDAuMDA=)"
     style="stroke-width: 1.07; stroke: none; fill: #D55E00;"
     points="389.43,287.92 388.71,277.88 316.55,283.07 317.27,293.11 " />
  <polygon
     id="polygon2306"
     clip-path="url(#cpMy4wMXw3MTkuNzN8NTk2Ljk5fDAuMDA=)"
     style="stroke-width: 1.07; stroke: none; fill: #D55E00;"
     points="399.14,282.90 398.97,281.10 398.49,279.36 397.71,277.74 396.65,276.28 395.35,275.03 393.84,274.04 392.18,273.33 390.42,272.93 388.62,272.85 386.83,273.09 385.12,273.65 383.53,274.50 382.12,275.63 380.93,276.98 380.01,278.53 379.37,280.22 379.05,282.00 379.05,283.80 379.37,285.58 380.01,287.26 380.93,288.81 382.12,290.17 383.53,291.30 385.12,292.15 386.83,292.71 388.62,292.95 390.42,292.87 392.18,292.47 393.84,291.76 395.35,290.77 396.65,289.52 397.71,288.06 398.49,286.43 398.97,284.70 399.14,282.90 " />
  <polygon
     id="polygon2308"
     clip-path="url(#cpMy4wMXw3MTkuNzN8NTk2Ljk5fDAuMDA=)"
     style="stroke-width: 1.07; stroke: none; fill: #CF7329;"
     points="335.18,229.72 324.78,227.44 311.71,286.95 322.11,289.23 " />
  <polygon
     id="polygon2310"
     clip-path="url(#cpMy4wMXw3MTkuNzN8NTk2Ljk5fDAuMDA=)"
     style="stroke-width: 1.07; stroke: none; fill: #CF7329;"
     points="340.63,228.58 340.45,226.68 339.95,224.84 339.12,223.12 338.00,221.58 336.62,220.26 335.03,219.21 333.27,218.46 331.41,218.03 329.50,217.95 327.61,218.20 325.80,218.79 324.12,219.70 322.63,220.89 321.37,222.33 320.39,223.96 319.72,225.75 319.38,227.63 319.38,229.54 319.72,231.41 320.39,233.20 321.37,234.84 322.63,236.27 324.12,237.46 325.80,238.37 327.61,238.96 329.50,239.21 331.41,239.13 333.27,238.70 335.03,237.95 336.62,236.90 338.00,235.58 339.12,234.04 339.95,232.32 340.45,230.48 340.63,228.58 " />
  <polygon
     id="polygon2312"
     clip-path="url(#cpMy4wMXw3MTkuNzN8NTk2Ljk5fDAuMDA=)"
     style="stroke-width: 1.07; stroke: none; fill: #3D8AB5;"
     points="249.80,327.76 243.63,314.69 313.83,281.56 320.00,294.62 " />
  <polygon
     id="polygon2314"
     clip-path="url(#cpMy4wMXw3MTkuNzN8NTk2Ljk5fDAuMDA=)"
     style="stroke-width: 1.07; stroke: none; fill: #3D8AB5;"
     points="261.16,321.23 260.93,318.65 260.24,316.15 259.12,313.82 257.59,311.72 255.72,309.93 253.56,308.50 251.18,307.49 248.65,306.91 246.07,306.79 243.50,307.14 241.04,307.94 238.75,309.17 236.73,310.78 235.02,312.73 233.70,314.96 232.79,317.38 232.32,319.93 232.32,322.52 232.79,325.07 233.70,327.50 235.02,329.72 236.73,331.67 238.75,333.29 241.04,334.51 243.50,335.31 246.07,335.66 248.65,335.54 251.18,334.97 253.56,333.95 255.72,332.52 257.59,330.73 259.12,328.64 260.24,326.30 260.93,323.81 261.16,321.23 " />
  <polygon
     id="polygon2316"
     clip-path="url(#cpMy4wMXw3MTkuNzN8NTk2Ljk5fDAuMDA=)"
     style="stroke-width: 1.07; stroke: none; fill: #BEBDBD;"
     points="352.47,375.08 342.98,378.45 327.16,333.94 336.64,330.57 " />
  <polygon
     id="polygon2318"
     clip-path="url(#cpMy4wMXw3MTkuNzN8NTk2Ljk5fDAuMDA=)"
     style="stroke-width: 1.07; stroke: none; fill: #BEBDBD;"
     points="357.79,376.76 357.63,374.97 357.15,373.23 356.36,371.60 355.30,370.14 354.00,368.90 352.49,367.90 350.83,367.19 349.08,366.79 347.27,366.71 345.49,366.95 343.77,367.51 342.18,368.37 340.77,369.49 339.58,370.85 338.66,372.40 338.03,374.09 337.70,375.86 337.70,377.66 338.03,379.44 338.66,381.13 339.58,382.68 340.77,384.04 342.18,385.16 343.77,386.02 345.49,386.57 347.27,386.82 349.08,386.73 350.83,386.33 352.49,385.62 354.00,384.63 355.30,383.38 356.36,381.92 357.15,380.30 357.63,378.56 357.79,376.76 " />
  <polygon
     id="polygon2320"
     clip-path="url(#cpMy4wMXw3MTkuNzN8NTk2Ljk5fDAuMDA=)"
     style="stroke-width: 1.07; stroke: none; fill: #3F8BB6;"
     points="323.99,285.69 309.84,290.49 324.82,334.65 338.97,329.85 " />
  <polygon
     id="polygon2322"
     clip-path="url(#cpMy4wMXw3MTkuNzN8NTk2Ljk5fDAuMDA=)"
     style="stroke-width:1.07;stroke:#000000;fill:#3F8BB6;stroke-opacity:1"
     points="331.85,288.09 331.61,285.42 330.90,282.84 329.74,280.43 328.16,278.26 326.23,276.41 323.99,274.94 321.53,273.88 318.92,273.29 316.24,273.17 313.59,273.53 311.04,274.35 308.68,275.62 306.59,277.29 304.83,279.31 303.45,281.61 302.51,284.12 302.03,286.75 302.03,289.43 302.51,292.07 303.45,294.57 304.83,296.87 306.59,298.89 308.68,300.56 311.04,301.83 313.59,302.65 316.24,303.01 318.92,302.89 321.53,302.30 323.99,301.25 326.23,299.77 328.16,297.92 329.74,295.75 330.90,293.34 331.61,290.76 331.85,288.09 " />
  <polygon
     transform="matrix(1.1,0,0,1.1,-33.1925,-33.2255)"
     id="polygon2324"
     clip-path="url(#cpMy4wMXw3MTkuNzN8NTk2Ljk5fDAuMDA=)"
     style="fill:#408bb6;stroke:#000000;stroke-width:1.06961;stroke-miterlimit:4;stroke-dasharray:none;stroke-opacity:1"
     points="346.75,329.56 346.03,326.95 344.85,324.51 343.26,322.32 341.31,320.45 339.05,318.96 336.56,317.9 333.92,317.3 331.22,317.18 328.54,317.54 325.97,318.37 323.58,319.66 321.47,321.34 319.69,323.38 318.3,325.7 317.35,328.24 316.86,330.9 316.86,333.61 317.35,336.27 318.3,338.8 319.69,341.13 321.47,343.16 323.58,344.85 325.97,346.13 328.54,346.97 331.22,347.33 333.92,347.21 336.56,346.61 339.05,345.55 341.31,344.05 343.26,342.18 344.85,340 346.03,337.56 346.75,334.95 346.99,332.25 " />
  <text
     transform="translate(0,-16)"
     x="277.53"
     y="462.51999"
     style="font-size:13.33333333px;font-family:Arial;-inkscape-font-specification:'Arial, Normal';font-weight:normal;font-style:normal;font-stretch:normal;font-variant:normal;font-variant-ligatures:normal;font-variant-caps:normal;font-variant-numeric:normal;font-variant-east-asian:normal;"
     textLength="28.76"
     lengthAdjust="spacingAndGlyphs"
     id="text2610">ASV1</text>
  <text
     transform="translate(0,-16)"
     x="250.28"
     y="97.739998"
     style="font-size:13.33333333px;font-family:Arial;-inkscape-font-specification:'Arial, Normal';font-weight:normal;font-style:normal;font-stretch:normal;font-variant:normal;font-variant-ligatures:normal;font-variant-caps:normal;font-variant-numeric:normal;font-variant-east-asian:normal;"
     textLength="41.27"
     lengthAdjust="spacingAndGlyphs"
     id="text2614">ASV101</text>
  <text
     transform="translate(36,4)"
     x="255.97"
     y="583.32001"
     style="font-style:normal;font-variant:normal;font-weight:normal;font-stretch:normal;font-size:13.3333px;font-family:Arial;-inkscape-font-specification:'Arial, Normal';font-variant-ligatures:normal;font-variant-caps:normal;font-variant-numeric:normal;font-variant-east-asian:normal"
     textLength="41.27"
     lengthAdjust="spacingAndGlyphs"
     id="text2618">ASV109</text>
  <text
     transform="translate(0,-16)"
     x="228.92999"
     y="443.79001"
     style="font-size:13.33333333px;font-family:Arial;-inkscape-font-specification:'Arial, Normal';font-weight:normal;font-style:normal;font-stretch:normal;font-variant:normal;font-variant-ligatures:normal;font-variant-caps:normal;font-variant-numeric:normal;font-variant-east-asian:normal;"
     textLength="41.27"
     lengthAdjust="spacingAndGlyphs"
     id="text2622">ASV178</text>
  <text
     transform="translate(0,-16)"
     x="29.16"
     y="402.01999"
     style="font-size:13.33333333px;font-family:Arial;-inkscape-font-specification:'Arial, Normal';font-weight:normal;font-style:normal;font-stretch:normal;font-variant:normal;font-variant-ligatures:normal;font-variant-caps:normal;font-variant-numeric:normal;font-variant-east-asian:normal;"
     textLength="28.76"
     lengthAdjust="spacingAndGlyphs"
     id="text2626">ASV2</text>
  <text
     transform="translate(0,-16)"
     x="89.370003"
     y="413.76001"
     style="font-size:13.33333333px;font-family:Arial;-inkscape-font-specification:'Arial, Normal';font-weight:normal;font-style:normal;font-stretch:normal;font-variant:normal;font-variant-ligatures:normal;font-variant-caps:normal;font-variant-numeric:normal;font-variant-east-asian:normal;"
     textLength="35.009998"
     lengthAdjust="spacingAndGlyphs"
     id="text2630">ASV20</text>
  <text
     transform="translate(-38,4)"
     x="176.46001"
     y="575.79999"
     style="font-style:normal;font-variant:normal;font-weight:normal;font-stretch:normal;font-size:13.3333px;font-family:Arial;-inkscape-font-specification:'Arial, Normal';font-variant-ligatures:normal;font-variant-caps:normal;font-variant-numeric:normal;font-variant-east-asian:normal"
     textLength="35.009998"
     lengthAdjust="spacingAndGlyphs"
     id="text2634">ASV32</text>
  <text
     transform="translate(0,-16)"
     x="43.959999"
     y="222.8"
     style="font-size:13.33333333px;font-family:Arial;-inkscape-font-specification:'Arial, Normal';font-weight:normal;font-style:normal;font-stretch:normal;font-variant:normal;font-variant-ligatures:normal;font-variant-caps:normal;font-variant-numeric:normal;font-variant-east-asian:normal;"
     textLength="41.27"
     lengthAdjust="spacingAndGlyphs"
     id="text2638">ASV369</text>
  <text
     transform="translate(0,-16)"
     x="20.66"
     y="344.70001"
     style="font-size:13.33333333px;font-family:Arial;-inkscape-font-specification:'Arial, Normal';font-weight:normal;font-style:normal;font-stretch:normal;font-variant:normal;font-variant-ligatures:normal;font-variant-caps:normal;font-variant-numeric:normal;font-variant-east-asian:normal;"
     textLength="41.27"
     lengthAdjust="spacingAndGlyphs"
     id="text2642">ASV376</text>
  <text
     transform="translate(0,-16)"
     x="291"
     y="513.28003"
     style="font-size:13.33333333px;font-family:Arial;-inkscape-font-specification:'Arial, Normal';font-weight:normal;font-style:normal;font-stretch:normal;font-variant:normal;font-variant-ligatures:normal;font-variant-caps:normal;font-variant-numeric:normal;font-variant-east-asian:normal;"
     textLength="41.27"
     lengthAdjust="spacingAndGlyphs"
     id="text2646">ASV377</text>
  <text
     transform="translate(0,-16)"
     x="424.75"
     y="125.42"
     style="font-size:13.33333333px;font-family:Arial;-inkscape-font-specification:'Arial, Normal';font-weight:normal;font-style:normal;font-stretch:normal;font-variant:normal;font-variant-ligatures:normal;font-variant-caps:normal;font-variant-numeric:normal;font-variant-east-asian:normal;"
     textLength="41.27"
     lengthAdjust="spacingAndGlyphs"
     id="text2650">ASV381</text>
  <text
     transform="translate(0,-16)"
     x="167.03"
     y="529.56"
     style="font-size:13.33333333px;font-family:Arial;-inkscape-font-specification:'Arial, Normal';font-weight:normal;font-style:normal;font-stretch:normal;font-variant:normal;font-variant-ligatures:normal;font-variant-caps:normal;font-variant-numeric:normal;font-variant-east-asian:normal;"
     textLength="35.009998"
     lengthAdjust="spacingAndGlyphs"
     id="text2654">ASV46</text>
  <text
     transform="translate(0,-16)"
     x="490.95001"
     y="456.53"
     style="font-size:13.33333333px;font-family:Arial;-inkscape-font-specification:'Arial, Normal';font-weight:normal;font-style:normal;font-stretch:normal;font-variant:normal;font-variant-ligatures:normal;font-variant-caps:normal;font-variant-numeric:normal;font-variant-east-asian:normal;"
     textLength="41.27"
     lengthAdjust="spacingAndGlyphs"
     id="text2658">ASV471</text>
  <text
     transform="translate(0,-16)"
     x="120.95"
     y="487.04999"
     style="font-size:13.33333333px;font-family:Arial;-inkscape-font-specification:'Arial, Normal';font-weight:normal;font-style:normal;font-stretch:normal;font-variant:normal;font-variant-ligatures:normal;font-variant-caps:normal;font-variant-numeric:normal;font-variant-east-asian:normal;"
     textLength="41.27"
     lengthAdjust="spacingAndGlyphs"
     id="text2662">ASV497</text>
  <text
     transform="translate(0,24)"
     x="217.62"
     y="556.53998"
     style="font-style:normal;font-variant:normal;font-weight:normal;font-stretch:normal;font-size:13.3333px;font-family:Arial;-inkscape-font-specification:'Arial, Normal';font-variant-ligatures:normal;font-variant-caps:normal;font-variant-numeric:normal;font-variant-east-asian:normal"
     textLength="35.009998"
     lengthAdjust="spacingAndGlyphs"
     id="text2666">ASV55</text>
  <text
     transform="translate(0,-16)"
     x="123.01"
     y="223.71001"
     style="font-size:13.33333333px;font-family:Arial;-inkscape-font-specification:'Arial, Normal';font-weight:normal;font-style:normal;font-stretch:normal;font-variant:normal;font-variant-ligatures:normal;font-variant-caps:normal;font-variant-numeric:normal;font-variant-east-asian:normal;"
     textLength="41.27"
     lengthAdjust="spacingAndGlyphs"
     id="text2670">ASV644</text>
  <text
     transform="translate(0,-16)"
     x="3.01"
     y="265"
     style="font-size:13.33333333px;font-family:Arial;-inkscape-font-specification:'Arial, Normal';font-weight:normal;font-style:normal;font-stretch:normal;font-variant:normal;font-variant-ligatures:normal;font-variant-caps:normal;font-variant-numeric:normal;font-variant-east-asian:normal;"
     textLength="41.27"
     lengthAdjust="spacingAndGlyphs"
     id="text2674">ASV669</text>
  <text
     transform="translate(0,-16)"
     x="534.23999"
     y="275.79001"
     style="font-size:13.33333333px;font-family:Arial;-inkscape-font-specification:'Arial, Normal';font-weight:normal;font-style:normal;font-stretch:normal;font-variant:normal;font-variant-ligatures:normal;font-variant-caps:normal;font-variant-numeric:normal;font-variant-east-asian:normal;"
     textLength="35.009998"
     lengthAdjust="spacingAndGlyphs"
     id="text2678">ASV72</text>
  <text
     transform="translate(0,-16)"
     x="177.57001"
     y="455.07001"
     style="font-size:13.33333333px;font-family:Arial;-inkscape-font-specification:'Arial, Normal';font-weight:normal;font-style:normal;font-stretch:normal;font-variant:normal;font-variant-ligatures:normal;font-variant-caps:normal;font-variant-numeric:normal;font-variant-east-asian:normal;"
     textLength="35.009998"
     lengthAdjust="spacingAndGlyphs"
     id="text2682">ASV79</text>
  <text
     transform="translate(0,-16)"
     x="201.23"
     y="237.42999"
     style="font-size:13.33333333px;font-family:Arial;-inkscape-font-specification:'Arial, Normal';font-weight:normal;font-style:normal;font-stretch:normal;font-variant:normal;font-variant-ligatures:normal;font-variant-caps:normal;font-variant-numeric:normal;font-variant-east-asian:normal;"
     textLength="35.009998"
     lengthAdjust="spacingAndGlyphs"
     id="text2686">ASV86</text>
  <text
     transform="translate(0,-16)"
     x="292.14001"
     y="547.41998"
     style="font-size:13.33333333px;font-family:Arial;-inkscape-font-specification:'Arial, Normal';font-weight:normal;font-style:normal;font-stretch:normal;font-variant:normal;font-variant-ligatures:normal;font-variant-caps:normal;font-variant-numeric:normal;font-variant-east-asian:normal;"
     textLength="28.76"
     lengthAdjust="spacingAndGlyphs"
     id="text2690">ASV9</text>
  <defs
     id="defs2770">
    <clipPath
       id="clipPath2768">
      <rect
         id="rect2766"
         height="599.73"
         width="720.00"
         y="0.00"
         x="0.00" />
    </clipPath>
  </defs>
  <text
     xml:space="preserve"
     style="font-style:normal;font-variant:normal;font-weight:normal;font-stretch:normal;font-size:32px;line-height:1.25;font-family:Avenir;-inkscape-font-specification:'Avenir, Normal';font-variant-ligatures:normal;font-variant-caps:normal;font-variant-numeric:normal;font-variant-east-asian:normal;fill:#ffffff;fill-opacity:1;stroke:none"
     x="322.82147"
     y="344.24548"
     id="text2951"><tspan
       sodipodi:role="line"
       id="tspan2953"
       x="322.82147"
       y="344.24548">P</tspan></text>
  <text
     id="text2951-9"
     y="298.82544"
     x="307.38086"
     style="font-style:normal;font-variant:normal;font-weight:500;font-stretch:normal;font-size:26.6667px;line-height:1.25;font-family:Avenir;-inkscape-font-specification:'Avenir, Medium';font-variant-ligatures:normal;font-variant-caps:normal;font-variant-numeric:normal;font-variant-east-asian:normal;fill:#ffffff;fill-opacity:1;stroke:none"
     xml:space="preserve"><tspan
       y="298.82544"
       x="307.38086"
       id="tspan2991"
       sodipodi:role="line">C</tspan></text>
  <text
     id="text2951-9-3-1"
     y="257.69315"
     x="232.83093"
     style="font-style:normal;font-variant:normal;font-weight:500;font-stretch:normal;font-size:21.3333px;line-height:1.25;font-family:Avenir;-inkscape-font-specification:'Avenir, Medium';font-variant-ligatures:normal;font-variant-caps:normal;font-variant-numeric:normal;font-variant-east-asian:normal;fill:#000000;fill-opacity:1;stroke:none"
     xml:space="preserve"><tspan
       y="257.69315"
       x="232.83093"
       id="tspan3063"
       sodipodi:role="line">Orders</tspan></text>
  <text
     xml:space="preserve"
     style="font-style:normal;font-variant:normal;font-weight:500;font-stretch:normal;font-size:21.3333px;line-height:1.25;font-family:Avenir;-inkscape-font-specification:'Avenir, Medium';font-variant-ligatures:normal;font-variant-caps:normal;font-variant-numeric:normal;font-variant-east-asian:normal;fill:#000000;fill-opacity:1;stroke:none"
     x="452.69498"
     y="203.77115"
     id="text2951-9-3-1-8"><tspan
       y="203.77115"
       x="452.69498"
       id="tspan3083"
       sodipodi:role="line">Families</tspan></text>
  <text
     id="text2538"
     lengthAdjust="spacingAndGlyphs"
     textLength="140.10001"
     style="font-size:21.73px;font-family:Arial"
     y="341.17001"
     x="271.69"
     transform="matrix(1.4641,0,0,1.4641,-16.47816,29.273781)">Cyanobacteria</text>
  <path
     inkscape:original-d="m 451.60186,203.18806 c -8.08283,-7.64586 -16.16666,-15.29272 -24.25148,-22.94059 -16.49471,5.35392 -33.20823,10.26965 -49.81385,15.40297"
     inkscape:path-effect="#path-effect3122"
     id="path3120"
     d="m 451.60186,203.18806 c -8.0828,-7.64589 -16.16663,-15.29276 -28.49219,-16.55544 -12.32557,-1.26268 -28.96789,3.8833 -45.57314,9.01782"
     style="fill:none;stroke:#000000;stroke-width:1px;stroke-linecap:butt;stroke-linejoin:miter;stroke-opacity:1" />
  <path
     inkscape:original-d="m 451.60186,203.18806 c 6.99242,9.28648 13.98383,18.57195 20.97425,27.85643 -7.42753,18.68157 -14.85576,37.36139 -22.28515,56.04058"
     inkscape:path-effect="#path-effect3126"
     id="path3124"
     d="m 451.60186,203.18806 c 6.99226,9.2866 13.98367,18.57207 13.76459,32.55479 -0.21908,13.98273 -7.64731,32.66255 -15.07549,51.34222"
     style="fill:none;stroke:#000000;stroke-width:1px;stroke-linecap:butt;stroke-linejoin:miter;stroke-opacity:1" />
  <path
     inkscape:original-d="m 301.71888,241.93127 c 0.15549,-5.71513 0.30998,-11.43126 0.46347,-17.14839 10.72043,0.43005 21.43943,0.85908 32.15765,1.28712"
     inkscape:path-effect="#path-effect3158"
     id="path3156"
     d="m 301.71888,241.93127 c 0.15446,-5.71516 0.30895,-11.43129 5.74645,-14.07529 5.43749,-2.64401 16.15649,-2.21498 26.87467,-1.78598"
     style="fill:none;stroke:#000000;stroke-width:1px;stroke-linecap:butt;stroke-linejoin:miter;stroke-opacity:1" />
  <path
     inkscape:original-d="m 301.71888,241.93127 c 2.47284,4.01774 4.94468,8.03448 7.41552,12.05021 -7.72365,9.73407 -15.448,19.46674 -23.1735,29.19861 -9.73206,-0.92596 -19.46473,-1.85288 -29.1986,-2.78082 -3.39784,13.44189 -6.79655,26.88225 -10.19633,40.32187"
     inkscape:path-effect="#path-effect3162"
     id="path3160"
     d="m 301.71888,241.93127 c 2.47256,4.01791 4.9444,8.03465 2.31758,14.90903 -2.62682,6.87437 -10.35116,16.60705 -19.07935,21.00999 -8.72818,4.40294 -18.46085,3.47602 -25.02734,9.7333 -6.56649,6.25727 -9.9652,19.69763 -13.3638,33.13755"
     style="fill:none;stroke:#000000;stroke-width:1px;stroke-linecap:butt;stroke-linejoin:miter;stroke-opacity:1" />
  <g
     style="display:inline"
     id="legend_0"
     transform="matrix(0.24553928,0,0,0.24553928,1040.4775,-111.17663)">
    <rect
       x="-4074.4734"
       y="859.20795"
       width="106.92685"
       height="106.92685"
       id="rect34255"
       style="fill:#0072b2;stroke:#000000;stroke-width:1.83769" />
    <text
       style="font-style:normal;font-variant:normal;font-weight:normal;font-stretch:normal;font-size:106.927px;font-family:'Helvetica Neue', Helvetica, Arial, 'sans-serif;';-inkscape-font-specification:'Helvetica Neue, Helvetica, Arial, sans-serif;, Normal';font-variant-ligatures:normal;font-variant-caps:normal;font-variant-numeric:normal;font-variant-east-asian:normal;text-anchor:start;fill:#000000;stroke-width:1.83769;text-rendering:optimizeLegibility"
       x="-3926.0654"
       y="951.49176"
       pointer-events="none"
       id="text34257"><tspan
         sodipodi:role="line"
         id="tspan20721"
         x="-3926.0654"
         y="951.49176">Normoxic</tspan></text>
    <g
       id="g39838">
      <g
         id="g39842">
        <rect
           x="-4074.4734"
           y="1006.5881"
           width="106.92685"
           height="106.92685"
           id="rect34259"
           style="fill:#d55e00;stroke:#000000;stroke-width:1.83769" />
        <text
           style="font-style:normal;font-variant:normal;font-weight:normal;font-stretch:normal;font-size:106.927px;font-family:'Helvetica Neue', Helvetica, Arial, 'sans-serif;';-inkscape-font-specification:'Helvetica Neue, Helvetica, Arial, sans-serif;, Normal';font-variant-ligatures:normal;font-variant-caps:normal;font-variant-numeric:normal;font-variant-east-asian:normal;text-anchor:start;fill:#000000;stroke-width:1.83769;text-rendering:optimizeLegibility"
           x="-3926.1724"
           y="1098.8721"
           pointer-events="none"
           id="text34261"><tspan
             sodipodi:role="line"
             id="tspan20723"
             x="-3926.1724"
             y="1098.8721">Hypoxic</tspan></text>
      </g>
    </g>
    <text
       style="font-size:116.371px;font-family:'Helvetica Neue', Helvetica, Arial, 'sans-serif;';text-anchor:end;text-rendering:optimizeLegibility"
       x="-3425.6306"
       y="777.87335"
       pointer-events="none"
       id="text34267">Sample type</text>
  </g>
</svg>
